<?xml version="1.0" standalone="no"?>
<!DOCTYPE svg PUBLIC "-//W3C//DTD SVG 20010904//EN"
 "http://www.w3.org/TR/2001/REC-SVG-20010904/DTD/svg10.dtd">
<svg version="1.0" xmlns="http://www.w3.org/2000/svg"
 width="173.000000pt" height="173.000000pt" viewBox="0 0 173.000000 173.000000"
 preserveAspectRatio="xMidYMid meet">
<metadata>
Created by potrace 1.11, written by Peter Selinger 2001-2013
</metadata>
<g transform="translate(0.000000,173.000000) scale(0.100000,-0.100000)"
fill="#000000" stroke="none">
<path d="M1425 1704 c-16 -6 -33 -10 -37 -7 -5 2 -8 -1 -8 -6 0 -6 -3 -10 -7
-9 -33 6 -92 -53 -88 -89 3 -30 8 -35 42 -38 27 -2 56 16 51 32 -3 15 65 53
96 54 63 2 120 -3 146 -14 34 -15 74 10 63 39 -4 11 -27 21 -78 31 -37 8 -50
11 -50 13 0 8 -107 4 -130 -6z"/>
<path d="M494 1208 c-3 -5 -16 -6 -30 -4 -13 3 -24 1 -24 -4 0 -4 -8 -7 -17
-6 -10 2 -33 -3 -50 -11 -18 -7 -35 -13 -38 -13 -20 0 -81 -26 -89 -39 -4 -5
-15 -8 -26 -6 -11 2 -20 1 -20 -3 0 -4 -34 -23 -75 -42 -76 -36 -89 -47 -76
-69 10 -16 58 -24 66 -11 14 23 32 9 30 -22 -2 -18 4 -45 11 -59 7 -15 11 -29
8 -31 -6 -6 67 -43 79 -40 4 1 7 -1 7 -6 0 -4 41 -7 90 -8 50 0 90 3 90 7 0 4
9 5 20 2 16 -4 19 -11 14 -32 -4 -14 -12 -35 -18 -46 -5 -11 -11 -22 -11 -25
-7 -46 -52 -130 -115 -217 -44 -59 -88 -119 -98 -133 -18 -25 -104 -196 -109
-215 -1 -5 -5 -21 -8 -35 -21 -82 -7 -121 44 -125 22 -2 36 6 62 37 19 21 34
42 35 46 0 4 10 27 21 52 35 74 55 122 57 135 1 7 8 20 15 29 7 9 11 16 7 16
-4 0 0 14 9 30 9 17 13 30 10 30 -3 0 2 11 10 24 9 13 18 34 20 47 3 12 10 26
17 31 7 4 10 8 6 8 -10 0 33 89 57 120 24 30 223 229 251 250 40 30 131 88
175 110 24 12 54 32 67 44 13 11 25 20 28 19 2 -2 5 -3 7 -2 1 0 11 2 21 4 10
2 22 7 25 12 7 9 44 28 83 43 24 8 27 7 24 -8 -8 -44 -19 -72 -28 -72 -5 0 -8
-6 -7 -12 2 -7 -5 -30 -14 -50 -9 -21 -25 -55 -34 -75 -9 -21 -17 -40 -18 -43
0 -3 -14 -30 -30 -60 -16 -30 -29 -57 -30 -60 -5 -32 -73 -144 -109 -178 -25
-24 -46 -47 -46 -53 0 -6 -4 -7 -10 -4 -5 3 -10 2 -10 -2 0 -5 -16 -26 -35
-48 -19 -22 -47 -58 -62 -80 -16 -22 -31 -41 -35 -43 -5 -2 -8 -10 -8 -18 0
-8 -4 -14 -10 -14 -5 0 -10 -7 -10 -15 0 -8 -5 -15 -12 -15 -6 0 -8 -3 -5 -7
4 -3 0 -15 -10 -25 -9 -10 -12 -18 -8 -18 4 0 1 -8 -7 -17 -15 -17 -28 -57
-33 -98 -4 -29 20 -62 49 -67 14 -3 26 -1 26 4 0 5 4 7 9 4 19 -12 98 91 162
214 19 36 38 68 42 71 5 3 8 9 8 13 -1 7 52 125 75 169 8 15 12 27 9 27 -10 0
18 31 120 134 105 106 165 160 165 150 0 -3 17 10 37 30 21 20 42 36 48 36 5
0 34 18 63 40 28 22 52 37 52 34 0 -4 6 -1 14 5 7 6 33 22 57 34 47 25 63 59
33 71 -19 7 -109 -33 -152 -69 -16 -13 -32 -22 -36 -18 -3 3 -6 0 -6 -7 0 -7
-3 -11 -6 -7 -4 3 -15 -4 -25 -16 -10 -12 -18 -19 -19 -15 0 5 -11 -2 -24 -13
-13 -12 -26 -20 -28 -19 -3 3 -31 -21 -107 -87 -38 -35 -64 -43 -55 -18 4 8
10 15 15 15 5 0 9 4 9 9 0 5 10 30 22 57 12 27 22 52 23 55 0 8 79 163 85 169
10 10 33 65 33 80 0 29 -14 46 -38 48 -13 1 -27 -3 -30 -8 -3 -6 -12 -10 -20
-10 -7 0 -35 -10 -62 -22 -26 -12 -51 -21 -55 -20 -5 1 -8 -3 -8 -8 0 -6 -18
-17 -40 -26 -22 -9 -40 -20 -40 -26 0 -5 -4 -7 -9 -3 -5 3 -12 1 -16 -5 -4 -6
-11 -8 -16 -5 -5 4 -9 3 -9 -2 0 -4 -15 -15 -32 -22 -37 -16 -91 -52 -96 -63
-2 -5 -10 -8 -18 -8 -8 0 -14 -4 -14 -10 0 -5 -4 -9 -8 -7 -10 3 -125 -88
-175 -138 -29 -29 -41 -35 -50 -26 -8 8 -8 11 1 11 7 0 11 3 10 8 -1 4 5 21
12 37 7 17 14 44 16 62 2 25 -2 32 -21 35 -13 3 -33 -1 -46 -8 -13 -7 -27 -10
-31 -8 -5 3 -8 1 -8 -5 0 -28 -170 -50 -191 -24 -6 7 -15 10 -20 8 -9 -6 -36
43 -34 60 5 35 30 67 70 90 60 36 101 45 215 50 117 5 120 6 121 19 6 47 5 57
-4 63 -16 10 -137 10 -143 1z"/>
<path d="M1319 646 c-43 -31 -47 -106 -8 -134 35 -25 80 -22 107 6 27 28 31
55 17 99 -10 32 -87 51 -116 29z"/>
</g>
</svg>
